<svg width="24" height="22" fill="none" xmlns="http://www.w3.org/2000/svg"><g clip-path="url(#clip0)"><path d="M22.675 0H1.325C.593 0 0 .544 0 1.215v19.571C0 21.456.593 22 1.325 22H12.82v-8.52H9.692v-3.32h3.128V7.712c0-2.842 1.893-4.39 4.659-4.39 1.325 0 2.463.092 2.795.132v2.97h-1.918c-1.504 0-1.795.656-1.795 1.617v2.12h3.587l-.467 3.32h-3.12V22h6.116c.73 0 1.323-.544 1.323-1.215V1.215C24 .544 23.407 0 22.675 0z" fill="#fff"/></g><defs><clipPath id="clip0"><path fill="#fff" d="M0 0h24v22H0z"/></clipPath></defs></svg>